<mxfile host="app.diagrams.net" modified="2023-12-18T17:59:42.858Z" agent="Mozilla/5.0 (Windows NT 10.0; Win64; x64) AppleWebKit/537.36 (KHTML, like Gecko) Chrome/122.0.0.0 Safari/537.36" version="22.1.11" etag="0YUO6CN17PGnzNv7wdlu" type="github">
  <diagram name="Page-1" id="LjMFFPtSk83k0fx78UYo">
    <mxGraphModel>
      <root>
        <mxCell id="0" />
        <mxCell id="1" parent="0" />
      </root>
    </mxGraphModel>
  </diagram>
</mxfile>
